<?xml version="1.0" encoding="iso-8859-1"?>
<!-- Generator: Adobe Illustrator 17.1.0, SVG Export Plug-In . SVG Version: 6.00 Build 0)  -->
<!DOCTYPE svg PUBLIC "-//W3C//DTD SVG 1.1//EN" "http://www.w3.org/Graphics/SVG/1.1/DTD/svg11.dtd">
<svg version="1.1" id="Capa_1" xmlns="http://www.w3.org/2000/svg" xmlns:xlink="http://www.w3.org/1999/xlink" x="0px" y="0px"
	 viewBox="0 0 193.999 193.999" style="enable-background:new 0 0 193.999 193.999;" xml:space="preserve">
<path d="M159.066,0H34.933c-9.649,0-17.5,7.851-17.5,17.5v158.999c0,9.649,7.851,17.5,17.5,17.5h124.134
	c9.649,0,17.5-7.851,17.5-17.5V17.5C176.566,7.851,168.716,0,159.066,0z M42.513,20.064h108.974c3.693,0,6.698,3.004,6.698,6.698v10
	c0,3.693-3.004,6.697-6.698,6.697H42.513c-3.693,0-6.698-3.004-6.698-6.697v-10C35.815,23.069,38.819,20.064,42.513,20.064z
	 M58.405,171.75h-7.283c-6.885,0-12.486-5.602-12.486-12.486s5.602-12.486,12.486-12.486h7.283c6.885,0,12.486,5.601,12.486,12.486
	S65.29,171.75,58.405,171.75z M58.405,130h-7.283c-6.885,0-12.486-5.602-12.486-12.486s5.602-12.486,12.486-12.486h7.283
	c6.885,0,12.486,5.601,12.486,12.486S65.29,130,58.405,130z M58.405,88.25h-7.283c-6.885,0-12.486-5.601-12.486-12.486
	s5.602-12.486,12.486-12.486h7.283c6.885,0,12.486,5.602,12.486,12.486S65.29,88.25,58.405,88.25z M100.641,171.75h-7.283
	c-6.885,0-12.486-5.602-12.486-12.486s5.601-12.486,12.486-12.486h7.283c6.885,0,12.486,5.601,12.486,12.486
	S107.526,171.75,100.641,171.75z M100.641,130h-7.283c-6.885,0-12.486-5.602-12.486-12.486s5.601-12.486,12.486-12.486h7.283
	c6.885,0,12.486,5.601,12.486,12.486S107.526,130,100.641,130z M100.641,88.25h-7.283c-6.885,0-12.486-5.601-12.486-12.486
	s5.601-12.486,12.486-12.486h7.283c6.885,0,12.486,5.602,12.486,12.486S107.526,88.25,100.641,88.25z M142.877,171.75h-7.283
	c-6.885,0-12.486-5.602-12.486-12.486s5.602-12.486,12.486-12.486h7.283c6.885,0,12.486,5.601,12.486,12.486
	S149.762,171.75,142.877,171.75z M142.877,130h-7.283c-6.885,0-12.486-5.602-12.486-12.486s5.602-12.486,12.486-12.486h7.283
	c6.885,0,12.486,5.601,12.486,12.486S149.762,130,142.877,130z M142.877,88.25h-7.283c-6.885,0-12.486-5.601-12.486-12.486
	s5.602-12.486,12.486-12.486h7.283c6.885,0,12.486,5.602,12.486,12.486S149.762,88.25,142.877,88.25z"/>
<g>
</g>
<g>
</g>
<g>
</g>
<g>
</g>
<g>
</g>
<g>
</g>
<g>
</g>
<g>
</g>
<g>
</g>
<g>
</g>
<g>
</g>
<g>
</g>
<g>
</g>
<g>
</g>
<g>
</g>
</svg>
